<svg xmlns="http://www.w3.org/2000/svg" xmlns:xlink="http://www.w3.org/1999/xlink" width="500" zoomAndPan="magnify" viewBox="0 0 375 374.999991" height="500" preserveAspectRatio="xMidYMid meet" version="1.0"><defs><g/></defs><g fill="#1c1917" fill-opacity="0.4"><g transform="translate(10.015696, 95.031244)"><g><path d="M 89.6875 -49.03125 L 85.6875 -49.03125 L 85.6875 -13.09375 L 89.6875 -13.09375 L 89.6875 0 L 59.5 0 L 59.5 -13.09375 L 63.328125 -13.09375 L 63.328125 -41.046875 L 49.75 0 L 37.9375 0 L 23.953125 -40.640625 L 23.953125 -13.09375 L 27.796875 -13.09375 L 27.796875 0 L 1.59375 0 L 1.59375 -13.09375 L 5.59375 -13.09375 L 5.59375 -49.03125 L 1.59375 -49.03125 L 1.59375 -62.125 L 38.171875 -62.125 L 46.484375 -37.21875 L 54.46875 -62.125 L 89.6875 -62.125 Z M 89.6875 -49.03125 "/></g></g></g><g fill="#1c1917" fill-opacity="0.4"><g transform="translate(104.630627, 95.031244)"><g><path d="M 31.625 1.125 C 21.882812 1.125 14.363281 -1.429688 9.0625 -6.546875 C 3.769531 -11.660156 1.125 -19.832031 1.125 -31.0625 C 1.125 -42.300781 3.769531 -50.472656 9.0625 -55.578125 C 14.363281 -60.691406 21.882812 -63.25 31.625 -63.25 C 41.363281 -63.25 48.878906 -60.691406 54.171875 -55.578125 C 59.472656 -50.472656 62.125 -42.300781 62.125 -31.0625 C 62.125 -19.832031 59.472656 -11.660156 54.171875 -6.546875 C 48.878906 -1.429688 41.363281 1.125 31.625 1.125 Z M 31.625 -13.09375 C 33.4375 -13.09375 34.796875 -13.570312 35.703125 -14.53125 C 36.609375 -15.488281 37.0625 -16.976562 37.0625 -19 L 37.0625 -43.125 C 37.0625 -45.144531 36.609375 -46.632812 35.703125 -47.59375 C 34.796875 -48.550781 33.4375 -49.03125 31.625 -49.03125 C 29.8125 -49.03125 28.453125 -48.550781 27.546875 -47.59375 C 26.640625 -46.632812 26.1875 -45.144531 26.1875 -43.125 L 26.1875 -19 C 26.1875 -16.925781 26.640625 -15.421875 27.546875 -14.484375 C 28.453125 -13.554688 29.8125 -13.09375 31.625 -13.09375 Z M 31.625 -13.09375 "/></g></g></g><g fill="#1c1917" fill-opacity="0.4"><g transform="translate(171.220734, 95.031244)"><g><path d="M 47.59375 -62.125 L 73.796875 -62.125 L 73.796875 -49.03125 L 69.796875 -49.03125 L 69.796875 0 L 47.359375 0 L 23.953125 -36.015625 L 23.953125 -13.09375 L 27.796875 -13.09375 L 27.796875 0 L 1.59375 0 L 1.59375 -13.09375 L 5.59375 -13.09375 L 5.59375 -49.03125 L 1.59375 -49.03125 L 1.59375 -62.125 L 30.421875 -62.125 L 51.421875 -30.109375 L 51.421875 -49.03125 L 47.59375 -49.03125 Z M 47.59375 -62.125 "/></g></g></g><g fill="#1c1917" fill-opacity="0.4"><g transform="translate(249.787256, 95.031244)"><g><path d="M 1.59375 0 L 1.59375 -13.09375 L 5.59375 -13.09375 L 5.59375 -49.03125 L 1.59375 -49.03125 L 1.59375 -62.125 L 55.5 -62.125 L 55.5 -38.015625 L 37.609375 -38.015625 L 37.609375 -49.03125 L 27.953125 -49.03125 L 27.953125 -36.421875 L 34.984375 -36.421875 L 34.984375 -27.3125 L 27.953125 -27.3125 L 27.953125 -13.09375 L 37.609375 -13.09375 L 37.609375 -25.71875 L 55.5 -25.71875 L 55.5 0 Z M 1.59375 0 "/></g></g></g><g fill="#1c1917" fill-opacity="0.4"><g transform="translate(310.069778, 95.031244)"><g><path d="M 36.5 -62.125 L 61.015625 -62.125 L 61.015625 -49.03125 L 57.8125 -49.03125 L 42.40625 -21.40625 L 42.40625 -13.09375 L 46.390625 -13.09375 L 46.390625 0 L 16.046875 0 L 16.046875 -13.09375 L 20.046875 -13.09375 L 20.046875 -21.40625 L 4.15625 -49.03125 L 0.953125 -49.03125 L 0.953125 -62.125 L 31.859375 -62.125 L 31.859375 -49.03125 L 29.0625 -49.03125 L 33.78125 -36.65625 L 34.578125 -36.65625 L 39.296875 -49.03125 L 36.5 -49.03125 Z M 36.5 -62.125 "/></g></g></g><g fill="#1c1917" fill-opacity="1"><g transform="translate(6.485807, 91.501353)"><g><path d="M 89.6875 -49.03125 L 85.6875 -49.03125 L 85.6875 -13.09375 L 89.6875 -13.09375 L 89.6875 0 L 59.5 0 L 59.5 -13.09375 L 63.328125 -13.09375 L 63.328125 -41.046875 L 49.75 0 L 37.9375 0 L 23.953125 -40.640625 L 23.953125 -13.09375 L 27.796875 -13.09375 L 27.796875 0 L 1.59375 0 L 1.59375 -13.09375 L 5.59375 -13.09375 L 5.59375 -49.03125 L 1.59375 -49.03125 L 1.59375 -62.125 L 38.171875 -62.125 L 46.484375 -37.21875 L 54.46875 -62.125 L 89.6875 -62.125 Z M 89.6875 -49.03125 "/></g></g></g><g fill="#1c1917" fill-opacity="1"><g transform="translate(101.100738, 91.501353)"><g><path d="M 31.625 1.125 C 21.882812 1.125 14.363281 -1.429688 9.0625 -6.546875 C 3.769531 -11.660156 1.125 -19.832031 1.125 -31.0625 C 1.125 -42.300781 3.769531 -50.472656 9.0625 -55.578125 C 14.363281 -60.691406 21.882812 -63.25 31.625 -63.25 C 41.363281 -63.25 48.878906 -60.691406 54.171875 -55.578125 C 59.472656 -50.472656 62.125 -42.300781 62.125 -31.0625 C 62.125 -19.832031 59.472656 -11.660156 54.171875 -6.546875 C 48.878906 -1.429688 41.363281 1.125 31.625 1.125 Z M 31.625 -13.09375 C 33.4375 -13.09375 34.796875 -13.570312 35.703125 -14.53125 C 36.609375 -15.488281 37.0625 -16.976562 37.0625 -19 L 37.0625 -43.125 C 37.0625 -45.144531 36.609375 -46.632812 35.703125 -47.59375 C 34.796875 -48.550781 33.4375 -49.03125 31.625 -49.03125 C 29.8125 -49.03125 28.453125 -48.550781 27.546875 -47.59375 C 26.640625 -46.632812 26.1875 -45.144531 26.1875 -43.125 L 26.1875 -19 C 26.1875 -16.925781 26.640625 -15.421875 27.546875 -14.484375 C 28.453125 -13.554688 29.8125 -13.09375 31.625 -13.09375 Z M 31.625 -13.09375 "/></g></g></g><g fill="#1c1917" fill-opacity="1"><g transform="translate(167.690845, 91.501353)"><g><path d="M 47.59375 -62.125 L 73.796875 -62.125 L 73.796875 -49.03125 L 69.796875 -49.03125 L 69.796875 0 L 47.359375 0 L 23.953125 -36.015625 L 23.953125 -13.09375 L 27.796875 -13.09375 L 27.796875 0 L 1.59375 0 L 1.59375 -13.09375 L 5.59375 -13.09375 L 5.59375 -49.03125 L 1.59375 -49.03125 L 1.59375 -62.125 L 30.421875 -62.125 L 51.421875 -30.109375 L 51.421875 -49.03125 L 47.59375 -49.03125 Z M 47.59375 -62.125 "/></g></g></g><g fill="#1c1917" fill-opacity="1"><g transform="translate(246.257367, 91.501353)"><g><path d="M 1.59375 0 L 1.59375 -13.09375 L 5.59375 -13.09375 L 5.59375 -49.03125 L 1.59375 -49.03125 L 1.59375 -62.125 L 55.5 -62.125 L 55.5 -38.015625 L 37.609375 -38.015625 L 37.609375 -49.03125 L 27.953125 -49.03125 L 27.953125 -36.421875 L 34.984375 -36.421875 L 34.984375 -27.3125 L 27.953125 -27.3125 L 27.953125 -13.09375 L 37.609375 -13.09375 L 37.609375 -25.71875 L 55.5 -25.71875 L 55.5 0 Z M 1.59375 0 "/></g></g></g><g fill="#1c1917" fill-opacity="1"><g transform="translate(306.539889, 91.501353)"><g><path d="M 36.5 -62.125 L 61.015625 -62.125 L 61.015625 -49.03125 L 57.8125 -49.03125 L 42.40625 -21.40625 L 42.40625 -13.09375 L 46.390625 -13.09375 L 46.390625 0 L 16.046875 0 L 16.046875 -13.09375 L 20.046875 -13.09375 L 20.046875 -21.40625 L 4.15625 -49.03125 L 0.953125 -49.03125 L 0.953125 -62.125 L 31.859375 -62.125 L 31.859375 -49.03125 L 29.0625 -49.03125 L 33.78125 -36.65625 L 34.578125 -36.65625 L 39.296875 -49.03125 L 36.5 -49.03125 Z M 36.5 -62.125 "/></g></g></g><g fill="#1c1917" fill-opacity="0.4"><g transform="translate(65.671681, 174.851592)"><g><path d="M 69.875 -62.125 L 95.4375 -62.125 L 95.4375 -49.03125 L 92.234375 -49.03125 L 80.34375 0 L 56.453125 0 L 49.1875 -34.5 L 48.390625 -34.5 L 40.734375 0 L 16.84375 0 L 4.15625 -49.03125 L 0.953125 -49.03125 L 0.953125 -62.125 L 30.5 -62.125 L 30.5 -49.03125 L 27.46875 -49.03125 L 30.59375 -28.671875 L 31.390625 -28.671875 L 38.96875 -62.125 L 61.96875 -62.125 L 69 -28.671875 L 69.796875 -28.671875 L 72.90625 -49.03125 L 69.875 -49.03125 Z M 69.875 -62.125 "/></g></g></g><g fill="#1c1917" fill-opacity="0.4"><g transform="translate(165.396548, 174.851592)"><g><path d="M 1.59375 0 L 1.59375 -13.09375 L 5.59375 -13.09375 L 5.59375 -49.03125 L 1.59375 -49.03125 L 1.59375 -62.125 L 31.9375 -62.125 L 31.9375 -49.03125 L 27.953125 -49.03125 L 27.953125 -13.09375 L 31.9375 -13.09375 L 31.9375 0 Z M 1.59375 0 "/></g></g></g><g fill="#1c1917" fill-opacity="0.4"><g transform="translate(202.285155, 174.851592)"><g><path d="M 26.359375 1.125 C 21.242188 1.125 16.410156 0.6875 11.859375 -0.1875 C 7.304688 -1.070312 3.804688 -2.070312 1.359375 -3.1875 L 1.359375 -19 L 18.921875 -19 C 18.921875 -17.351562 19.289062 -16.15625 20.03125 -15.40625 C 20.78125 -14.664062 22.144531 -14.296875 24.125 -14.296875 C 25.769531 -14.296875 26.953125 -14.546875 27.671875 -15.046875 C 28.390625 -15.554688 28.75 -16.316406 28.75 -17.328125 C 28.75 -18.179688 28.398438 -18.910156 27.703125 -19.515625 C 27.015625 -20.128906 25.820312 -20.757812 24.125 -21.40625 L 17.25 -23.796875 C 11.34375 -26.035156 7.097656 -28.671875 4.515625 -31.703125 C 1.929688 -34.734375 0.640625 -38.832031 0.640625 -44 C 0.640625 -50.28125 2.703125 -55.054688 6.828125 -58.328125 C 10.953125 -61.609375 17.832031 -63.25 27.46875 -63.25 C 32.101562 -63.25 36.457031 -62.78125 40.53125 -61.84375 C 44.601562 -60.914062 47.890625 -59.679688 50.390625 -58.140625 L 50.390625 -43.84375 L 34.421875 -43.84375 C 34.421875 -46.5 32.769531 -47.828125 29.46875 -47.828125 C 27.875 -47.828125 26.742188 -47.628906 26.078125 -47.234375 C 25.410156 -46.835938 25.078125 -46.132812 25.078125 -45.125 C 25.078125 -44.21875 25.460938 -43.5 26.234375 -42.96875 C 27.003906 -42.4375 28.269531 -41.875 30.03125 -41.28125 L 36.96875 -38.890625 C 42.613281 -36.972656 46.726562 -34.484375 49.3125 -31.421875 C 51.894531 -28.359375 53.1875 -24.351562 53.1875 -19.40625 C 53.1875 -12.644531 50.910156 -7.53125 46.359375 -4.0625 C 41.804688 -0.601562 35.140625 1.125 26.359375 1.125 Z M 26.359375 1.125 "/></g></g></g><g fill="#1c1917" fill-opacity="0.4"><g transform="translate(259.453827, 174.851592)"><g><path d="M 1.59375 0 L 1.59375 -13.09375 L 5.59375 -13.09375 L 5.59375 -49.03125 L 1.59375 -49.03125 L 1.59375 -62.125 L 55.5 -62.125 L 55.5 -38.015625 L 37.609375 -38.015625 L 37.609375 -49.03125 L 27.953125 -49.03125 L 27.953125 -36.421875 L 34.984375 -36.421875 L 34.984375 -27.3125 L 27.953125 -27.3125 L 27.953125 -13.09375 L 37.609375 -13.09375 L 37.609375 -25.71875 L 55.5 -25.71875 L 55.5 0 Z M 1.59375 0 "/></g></g></g><g fill="#1c1917" fill-opacity="1"><g transform="translate(62.141792, 171.321701)"><g><path d="M 69.875 -62.125 L 95.4375 -62.125 L 95.4375 -49.03125 L 92.234375 -49.03125 L 80.34375 0 L 56.453125 0 L 49.1875 -34.5 L 48.390625 -34.5 L 40.734375 0 L 16.84375 0 L 4.15625 -49.03125 L 0.953125 -49.03125 L 0.953125 -62.125 L 30.5 -62.125 L 30.5 -49.03125 L 27.46875 -49.03125 L 30.59375 -28.671875 L 31.390625 -28.671875 L 38.96875 -62.125 L 61.96875 -62.125 L 69 -28.671875 L 69.796875 -28.671875 L 72.90625 -49.03125 L 69.875 -49.03125 Z M 69.875 -62.125 "/></g></g></g><g fill="#1c1917" fill-opacity="1"><g transform="translate(161.866659, 171.321701)"><g><path d="M 1.59375 0 L 1.59375 -13.09375 L 5.59375 -13.09375 L 5.59375 -49.03125 L 1.59375 -49.03125 L 1.59375 -62.125 L 31.9375 -62.125 L 31.9375 -49.03125 L 27.953125 -49.03125 L 27.953125 -13.09375 L 31.9375 -13.09375 L 31.9375 0 Z M 1.59375 0 "/></g></g></g><g fill="#1c1917" fill-opacity="1"><g transform="translate(198.755266, 171.321701)"><g><path d="M 26.359375 1.125 C 21.242188 1.125 16.410156 0.6875 11.859375 -0.1875 C 7.304688 -1.070312 3.804688 -2.070312 1.359375 -3.1875 L 1.359375 -19 L 18.921875 -19 C 18.921875 -17.351562 19.289062 -16.15625 20.03125 -15.40625 C 20.78125 -14.664062 22.144531 -14.296875 24.125 -14.296875 C 25.769531 -14.296875 26.953125 -14.546875 27.671875 -15.046875 C 28.390625 -15.554688 28.75 -16.316406 28.75 -17.328125 C 28.75 -18.179688 28.398438 -18.910156 27.703125 -19.515625 C 27.015625 -20.128906 25.820312 -20.757812 24.125 -21.40625 L 17.25 -23.796875 C 11.34375 -26.035156 7.097656 -28.671875 4.515625 -31.703125 C 1.929688 -34.734375 0.640625 -38.832031 0.640625 -44 C 0.640625 -50.28125 2.703125 -55.054688 6.828125 -58.328125 C 10.953125 -61.609375 17.832031 -63.25 27.46875 -63.25 C 32.101562 -63.25 36.457031 -62.78125 40.53125 -61.84375 C 44.601562 -60.914062 47.890625 -59.679688 50.390625 -58.140625 L 50.390625 -43.84375 L 34.421875 -43.84375 C 34.421875 -46.5 32.769531 -47.828125 29.46875 -47.828125 C 27.875 -47.828125 26.742188 -47.628906 26.078125 -47.234375 C 25.410156 -46.835938 25.078125 -46.132812 25.078125 -45.125 C 25.078125 -44.21875 25.460938 -43.5 26.234375 -42.96875 C 27.003906 -42.4375 28.269531 -41.875 30.03125 -41.28125 L 36.96875 -38.890625 C 42.613281 -36.972656 46.726562 -34.484375 49.3125 -31.421875 C 51.894531 -28.359375 53.1875 -24.351562 53.1875 -19.40625 C 53.1875 -12.644531 50.910156 -7.53125 46.359375 -4.0625 C 41.804688 -0.601562 35.140625 1.125 26.359375 1.125 Z M 26.359375 1.125 "/></g></g></g><g fill="#1c1917" fill-opacity="1"><g transform="translate(255.923937, 171.321701)"><g><path d="M 1.59375 0 L 1.59375 -13.09375 L 5.59375 -13.09375 L 5.59375 -49.03125 L 1.59375 -49.03125 L 1.59375 -62.125 L 55.5 -62.125 L 55.5 -38.015625 L 37.609375 -38.015625 L 37.609375 -49.03125 L 27.953125 -49.03125 L 27.953125 -36.421875 L 34.984375 -36.421875 L 34.984375 -27.3125 L 27.953125 -27.3125 L 27.953125 -13.09375 L 37.609375 -13.09375 L 37.609375 -25.71875 L 55.5 -25.71875 L 55.5 0 Z M 1.59375 0 "/></g></g></g><g fill="#1c1917" fill-opacity="1"><g transform="translate(173.645009, 341.38535)"><g><path d="M 85.25 -79.65625 L 117.140625 -80.453125 L 117.546875 -64.125 L 113.5625 -64.03125 L 100.21875 -2.484375 L 70.4375 -1.75 L 60.3125 -44.546875 L 59.3125 -44.53125 L 50.8125 -1.265625 L 21.03125 -0.515625 L 3.671875 -61.296875 L -0.3125 -61.203125 L -0.71875 -77.53125 L 36.125 -78.4375 L 36.53125 -62.109375 L 32.75 -62.015625 L 37.265625 -36.71875 L 38.265625 -36.734375 L 46.6875 -78.703125 L 75.375 -79.421875 L 85.1875 -37.90625 L 86.171875 -37.921875 L 89.4375 -63.421875 L 85.65625 -63.328125 Z M 85.25 -79.65625 "/></g></g></g><g fill="#1c1917" fill-opacity="1"><g transform="translate(210.260616, 204.929639)"><g><path d="M -87.203125 77.53125 L -119.09375 77.53125 L -119.09375 61.1875 L -115.109375 61.1875 L -100.25 0 L -70.453125 0 L -61.390625 43.046875 L -60.390625 43.046875 L -50.828125 0 L -21.03125 0 L -5.1875 61.1875 L -1.203125 61.1875 L -1.203125 77.53125 L -38.0625 77.53125 L -38.0625 61.1875 L -34.28125 61.1875 L -38.171875 35.78125 L -39.171875 35.78125 L -48.625 77.53125 L -77.328125 77.53125 L -86.109375 35.78125 L -87.09375 35.78125 L -90.984375 61.1875 L -87.203125 61.1875 Z M -87.203125 77.53125 "/></g></g></g></svg>